HIERARCHY
ROOT Hips
{
	OFFSET -3.958830 18.904000 13.208200
	CHANNELS 6 Xposition Yposition Zposition Zrotation Yrotation Xrotation 
	JOINT LHipJoint
	{
		OFFSET 0.000000 0.000000 0.000000
		CHANNELS 3 Zrotation Yrotation Xrotation
		JOINT LeftUpLeg
		{
			OFFSET 1.800000 -1.400000 0.085000
			CHANNELS 3 Zrotation Yrotation Xrotation
			JOINT LeftLeg
			{
				OFFSET 2.215000 -6.000000 0.000000
				CHANNELS 3 Zrotation Yrotation Xrotation
				JOINT LeftFoot
				{
					OFFSET 2.500000 -6.900000 0.000000
					CHANNELS 3 Zrotation Yrotation Xrotation
					JOINT LeftToeBase
					{
						OFFSET 0.200000 -0.500000 1.950000
						CHANNELS 3 Zrotation Yrotation Xrotation
						End Site
						{
							OFFSET 0.000000 0.000000 0.000000
						}
					}
				}
			}
		}
	}
	JOINT RHipJoint
	{
		OFFSET 0.000000 0.000000 0.000000
		CHANNELS 3 Zrotation Yrotation Xrotation
		JOINT RightUpLeg
		{
			OFFSET -1.800000 -1.400000 0.085000
			CHANNELS 3 Zrotation Yrotation Xrotation
			JOINT RightLeg
			{
				OFFSET -2.215000 -6.000000 0.000000
				CHANNELS 3 Zrotation Yrotation Xrotation
				JOINT RightFoot
				{
					OFFSET -2.500000 -6.900000 0.000000
					CHANNELS 3 Zrotation Yrotation Xrotation
					JOINT RightToeBase
					{
						OFFSET -0.200000 -0.500000 1.950000
						CHANNELS 3 Zrotation Yrotation Xrotation
						End Site
						{
							OFFSET 0.000000 0.000000 0.000000
						}
					}
				}
			}
		}
	}
	JOINT LowerBack
	{
		OFFSET 0.000000 0.000000 0.000000
		CHANNELS 3 Zrotation Yrotation Xrotation
		JOINT Spine
		{
			OFFSET -0.087000 1.940000 -0.288900
			CHANNELS 3 Zrotation Yrotation Xrotation
			JOINT Spine1
			{
				OFFSET 0.000000 1.950000 0.060000
				CHANNELS 3 Zrotation Yrotation Xrotation
				JOINT Neck
				{
					OFFSET 0.000000 0.000000 0.000000
					CHANNELS 3 Zrotation Yrotation Xrotation
					JOINT Neck1
					{
						OFFSET 0.000000 1.600000 0.340000
						CHANNELS 3 Zrotation Yrotation Xrotation
						JOINT Head
						{
							OFFSET 0.000000 1.667000 -0.240000
							CHANNELS 3 Zrotation Yrotation Xrotation
							End Site
							{
								OFFSET 0.000000 0.000000 0.000000
							}
						}
					}
				}
				JOINT LeftShoulder
				{
					OFFSET 0.000000 0.000000 0.000000
					CHANNELS 3 Zrotation Yrotation Xrotation
					JOINT LeftArm
					{
						OFFSET 2.700000 1.550000 -0.730000
						CHANNELS 3 Zrotation Yrotation Xrotation
						JOINT LeftForeArm
						{
							OFFSET 5.450000 0.000000 0.000000
							CHANNELS 3 Zrotation Yrotation Xrotation
							JOINT LeftHand
							{
								OFFSET 3.450000 0.000000 0.000000
								CHANNELS 3 Zrotation Yrotation Xrotation
								JOINT LeftHandIndex1
								{
									OFFSET 0.750000 0.000000 0.000000
									CHANNELS 3 Zrotation Yrotation Xrotation
									End Site
									{
										OFFSET 0.000000 0.000000 0.000000
									}
								}
							}
						}
					}
				}
				JOINT RightShoulder
				{
					OFFSET 0.000000 0.000000 0.000000
					CHANNELS 3 Zrotation Yrotation Xrotation
					JOINT RightArm
					{
						OFFSET -2.700000 1.550000 -0.730000
						CHANNELS 3 Zrotation Yrotation Xrotation
						JOINT RightForeArm
						{
							OFFSET -5.450000 0.000000 0.000000
							CHANNELS 3 Zrotation Yrotation Xrotation
							JOINT RightHand
							{
								OFFSET -3.450000 0.000000 0.000000
								CHANNELS 3 Zrotation Yrotation Xrotation
								JOINT RightHandIndex1
								{
									OFFSET -0.750000 0.000000 0.000000
									CHANNELS 3 Zrotation Yrotation Xrotation
									End Site
									{
										OFFSET 0.000000 0.000000 0.000000
									}
								}
							}
						}
					}
				}
			}
		}
	}
}
MOTION
Frames: 8
Frame Time: 0.016667
-1.686070 15.761850 -2.784140 -5.106759 -10.595534 3.373519 -15.947181 10.704947 5.226613 34.733279 -0.896753 -44.209883 4.423789 16.054706 67.245541 0.967814 12.184288 -0.030367 0.735840 0.670160 0.794360 18.371322 -6.268760 5.069789 -33.303676 9.516186 -52.846736 15.425580 -21.487093 59.978967 -1.890890 -10.594635 0.538994 0.316190 -0.573000 0.149390 -2.881260 -4.037272 -10.428979 9.857134 -5.491066 61.047679 -4.007677 1.463893 -3.978793 5.280960 -1.378973 -7.599981 -5.961968 3.723987 51.909578 -6.449430 4.104230 -28.357040 -39.846481 -15.283384 2.380378 -30.574826 -0.226505 -13.315561 -10.647263 -47.693132 1.708144 -2.976986 3.265061 0.696260 -0.409470 0.598320 -0.041710 29.006311 19.615960 4.351634 22.690400 8.652965 -12.469715 38.278031 54.884615 15.693852 2.249561 -1.540926 0.100080 0.100940 -0.251220 -0.292740 
-1.681240 15.754810 -2.789230 -5.203674 -10.274393 3.754076 -15.961831 10.636680 5.280640 34.849472 -1.036110 -44.863873 4.448815 16.015128 67.390280 0.972427 12.194560 -0.032961 0.741130 0.674770 0.795360 18.372866 -6.182651 5.109631 -33.747896 9.263057 -53.198557 16.090998 -21.951173 59.795893 -1.904750 -10.680643 0.513574 0.322490 -0.577210 0.149950 -2.864068 -4.098816 -10.468682 9.966455 -5.718318 61.029989 -3.775746 1.333089 -4.065738 5.266802 -1.355268 -7.476251 -5.936484 3.723586 51.994803 -6.526720 4.132720 -27.730470 -40.263145 -15.383162 2.344769 -30.744710 -0.832400 -13.276437 -10.231422 -47.630528 1.554129 -2.979780 3.277738 0.683750 -0.404330 0.591450 -0.039900 29.473850 19.629238 4.239168 22.451193 8.877741 -12.464703 37.871041 55.216042 15.681102 2.247766 -1.563543 0.104120 0.087410 -0.257730 -0.293460 
-1.679110 15.748250 -2.813490 -5.102513 -9.508492 4.043026 -15.968332 10.567571 5.328009 34.838212 -1.416363 -45.607390 4.488622 15.738916 67.246511 0.939246 12.123254 -0.025802 0.752170 0.688080 0.816650 18.377283 -6.104317 5.167420 -34.641361 8.796241 -53.455040 17.280648 -22.548345 59.101778 -1.926720 -10.725451 0.489968 0.332090 -0.605120 0.148150 -2.850471 -4.144318 -10.516448 10.010996 -6.013182 61.420510 -3.830798 1.148977 -3.997056 5.463286 -0.709818 -7.681227 -4.749209 3.468645 53.754028 -6.904390 4.586030 -27.758900 -41.093437 -16.535656 2.582219 -30.878847 -2.312021 -13.475805 -9.228570 -47.730532 1.120082 -2.962241 3.271591 0.698540 -0.414950 0.609710 -0.048710 29.975553 20.294225 4.349475 23.645944 9.350376 -13.081277 35.101951 56.178041 14.638646 2.223821 -1.559121 0.103960 0.080170 -0.264970 -0.308190 
-1.676260 15.773270 -2.852810 -4.989429 -9.078838 4.574983 -15.971931 10.504332 5.412549 35.019961 -1.597451 -46.237656 3.838307 15.800120 66.352152 0.882477 12.025373 -0.014003 0.759790 0.690450 0.833590 18.380208 -6.062809 5.179960 -34.742450 8.730741 -53.749675 17.552539 -22.170433 58.027335 -1.887924 -10.520003 0.535852 0.334160 -0.626140 0.147040 -2.845069 -4.156137 -10.547349 9.773918 -6.063215 61.841085 -3.771772 1.129070 -3.942487 5.446461 -0.754916 -8.095642 -5.212212 3.638836 55.455046 -7.114380 4.512110 -28.182240 -41.608109 -17.764574 2.814035 -31.659016 -4.001048 -13.833555 -7.552100 -48.311161 0.347083 -2.946897 3.235229 0.725040 -0.432480 0.626570 -0.060440 30.554400 21.573699 4.692421 24.928588 9.905030 -13.806355 32.928391 56.990083 13.738792 2.196179 -1.545997 0.100860 0.083860 -0.261580 -0.320300 
-1.664990 15.819830 -2.886980 -4.831713 -8.836625 5.163039 -15.965774 10.449527 5.487964 35.503195 -1.566795 -46.223759 2.232853 16.378569 64.678203 0.852984 11.919216 0.010696 0.771470 0.706240 0.830910 18.387929 -6.061350 5.170122 -34.618077 8.830208 -53.855502 17.739171 -21.460740 56.623636 -1.817920 -10.230257 0.614156 0.338550 -0.628570 0.149210 -2.862910 -4.113945 -10.548810 9.516442 -5.965335 62.454647 -3.639262 1.200683 -4.581444 5.099949 -1.279605 -7.887762 -6.558120 4.017356 55.398315 -6.680650 4.146830 -28.237260 -42.527805 -17.899119 2.523407 -31.556412 -5.392044 -13.898129 -10.210514 -49.739983 1.400304 -2.930017 3.276074 0.715650 -0.439010 0.627280 -0.054930 32.170833 21.932038 4.726685 25.805266 10.412547 -14.077949 32.768762 57.601158 13.731087 2.194283 -1.575985 0.114820 0.077210 -0.268670 -0.308840 
-1.640200 15.889810 -2.915690 -4.899199 -8.664040 5.612622 -15.980360 10.398363 5.610826 36.414418 -1.382534 -46.066141 -0.029036 17.300820 62.689368 0.804112 11.871270 0.013139 0.776790 0.711550 0.838590 18.378098 -6.050104 5.113422 -34.075549 9.103548 -53.794525 17.401073 -20.508248 55.418120 -1.746624 -9.890712 0.707481 0.343130 -0.628110 0.148490 -2.831219 -4.128295 -10.560730 8.952872 -5.592340 63.162553 -3.296756 1.380572 -4.921949 4.930797 -1.193052 -7.943539 -6.492257 4.376661 56.139073 -6.318980 4.602850 -28.633430 -42.855535 -18.442019 2.500648 -32.262738 -6.667517 -14.065035 -12.631699 -51.172665 2.336980 -2.927649 3.273880 0.732840 -0.443680 0.636020 -0.056290 32.900807 22.430670 4.693797 26.790835 11.337703 -14.057883 33.612351 57.153551 13.915560 2.193924 -1.562398 0.107730 0.088620 -0.266590 -0.314390 
-1.606150 15.996070 -2.940430 -4.587468 -8.057092 5.978028 -15.954260 10.432996 5.722620 36.457645 -1.693225 -45.985198 -2.154788 17.679136 60.376638 0.748657 11.701027 0.055975 0.773630 0.706540 0.826250 18.371088 -6.231060 4.941065 -32.995451 9.104317 -52.712207 16.016243 -18.768522 53.629196 -1.595465 -9.306933 0.872994 0.338470 -0.625130 0.145350 -2.841042 -4.031192 -10.504910 8.407759 -5.547618 63.569636 -3.436924 1.272082 -5.381946 4.779703 -1.364875 -8.330194 -7.242475 4.263708 57.792508 -5.900070 3.904040 -27.690700 -43.842756 -19.390107 2.792769 -31.913288 -7.232543 -14.428913 -14.814698 -51.727650 3.166398 -2.888815 3.318585 0.730190 -0.446650 0.631380 -0.054240 34.245303 23.548660 4.968934 27.551286 12.004997 -14.132993 33.627105 55.685856 13.386273 2.185377 -1.568200 0.111490 0.087100 -0.263620 -0.306820 
-1.558970 16.117270 -2.957680 -4.107078 -7.433469 6.433841 -15.922753 10.569353 5.777625 35.945000 -2.149401 -45.685480 -3.868095 17.587660 57.781528 0.675179 11.402943 0.139699 0.798350 0.737370 0.814910 18.350898 -6.483207 4.717534 -31.694303 8.885228 -51.288475 13.981191 -16.557057 51.359285 -1.420362 -8.542623 1.093105 0.355080 -0.619310 0.139970 -2.833782 -3.999047 -10.383131 7.570523 -5.251430 63.465737 -2.980511 1.103536 -5.517329 4.335918 -2.173478 -8.501794 -9.540446 5.231089 59.480778 -4.315390 3.110050 -27.167410 -43.956097 -19.588541 2.718802 -32.784995 -8.115333 -14.445717 -17.518295 -51.792294 4.192860 -2.858967 3.339046 0.731330 -0.463400 0.637000 -0.032080 35.337089 24.148927 4.981039 28.118992 12.883028 -13.739655 34.701996 53.512221 13.201605 2.203519 -1.563589 0.121840 0.097880 -0.275860 -0.285970 
